<mxfile host="app.diagrams.net" modified="2023-08-22T01:48:56.139Z" agent="Mozilla/5.0 (Windows NT 10.0; Win64; x64) AppleWebKit/537.36 (KHTML, like Gecko) Chrome/116.0.0.0 Safari/537.36" version="21.6.8" etag="z-1SEiyzgPU5Lq-ji457" type="github">
  <diagram name="Halaman-1" id="RJFBqRJd132lDfEHFxXW">
    <mxGraphModel>
      <root>
        <mxCell id="0" />
        <mxCell id="1" parent="0" />
      </root>
    </mxGraphModel>
  </diagram>
</mxfile>
